<?xml version="1.0" encoding="utf-8"?>
<!-- Generator: Adobe Illustrator 19.1.0, SVG Export Plug-In . SVG Version: 6.00 Build 0)  -->
<svg fill="#FF9522" version="1.1" id="Capa_1" xmlns="http://www.w3.org/2000/svg" xmlns:xlink="http://www.w3.org/1999/xlink" x="0px" y="0px"
	 viewBox="-281 175 48 48" style="enable-background:new -281 175 48 48;" xml:space="preserve">
<style type="text/css">
	.st0{fill:none;}
</style>
<path class="st0" d="M-281,175h48v48h-48V175z"/>
<path d="M-239.5,182.1h-12.3l-4.4,7c-0.3,0-0.5,0-0.8,0c-0.3,0-0.5,0-0.8,0l-4.4-7h-12.3l7.3,11.7c-2,2.3-3.2,5.4-3.2,8.7
	c0,7.4,6,13.4,13.4,13.4s13.4-6,13.4-13.4c0-3.3-1.2-6.4-3.2-8.7L-239.5,182.1z M-252,209.4l-5-3.6l-5,3.6l1.9-5.9l-5-3.6h6.2
	l1.9-5.9l1.9,5.9h6.2l-5,3.6L-252,209.4z"/>
</svg>
