<?xml version="1.0" encoding="UTF-8" standalone="no"?>
<svg fill="#FF9522" width="40px" height="32px" viewBox="0 0 40 32" version="1.1" xmlns="http://www.w3.org/2000/svg" xmlns:xlink="http://www.w3.org/1999/xlink" xmlns:sketch="http://www.bohemiancoding.com/sketch/ns">
    <!-- Generator: Sketch 3.3.2 (12043) - http://www.bohemiancoding.com/sketch -->
    <title>Email</title>
    <desc>Created with Sketch.</desc>
    <defs></defs>
    <g id="Aplicacion" stroke="none" stroke-width="1" fill="none" fill-rule="evenodd" sketch:type="MSPage">
        <g id="Menu" sketch:type="MSArtboardGroup" transform="translate(-36.000000, -1066.000000)">
            <g id="side-nav-drawer" sketch:type="MSLayerGroup" transform="translate(-4.000000, 0.000000)">
                <g id="list" transform="translate(36.000000, 439.000000)" sketch:type="MSShapeGroup">
                    <g id="icons" transform="translate(0.000000, 1.000000)">
                        <g id="Email" transform="translate(0.000000, 618.000000)">
                            <path d="M40,8 L8,8 C5.79,8 4.02,9.79 4.02,12 L4,36 C4,38.21 5.79,40 8,40 L40,40 C42.21,40 44,38.21 44,36 L44,12 C44,9.79 42.21,8 40,8 L40,8 Z M40,16 L24,26 L8,16 L8,12 L24,22 L40,12 L40,16 L40,16 Z" id="Shape" fill="#FF9522"></path>
                            <path d="M0,0 L48,0 L48,48 L0,48 L0,0 Z" id="Shape"></path>
                        </g>
                    </g>
                </g>
            </g>
        </g>
    </g>
</svg>
